<mxfile host="app.diagrams.net" modified="2023-03-23T12:24:37.646Z" agent="5.0 (Windows NT 10.0; Win64; x64) AppleWebKit/537.36 (KHTML, like Gecko) Chrome/111.0.0.0 Safari/537.36" etag="tfGz7bMQ1_amf3rYam9Z" version="21.0.10" type="github">
  <diagram id="C5RBs43oDa-KdzZeNtuy" name="Page-1">
    <mxGraphModel dx="1434" dy="796" grid="1" gridSize="10" guides="1" tooltips="1" connect="1" arrows="1" fold="1" page="1" pageScale="1" pageWidth="827" pageHeight="1169" math="0" shadow="0">
      <root>
        <mxCell id="WIyWlLk6GJQsqaUBKTNV-0" />
        <mxCell id="WIyWlLk6GJQsqaUBKTNV-1" parent="WIyWlLk6GJQsqaUBKTNV-0" />
        <mxCell id="IbOYJ-ve2DzLfhkxbHf1-2" value="" style="edgeStyle=orthogonalEdgeStyle;rounded=0;orthogonalLoop=1;jettySize=auto;html=1;" edge="1" parent="WIyWlLk6GJQsqaUBKTNV-1" source="IbOYJ-ve2DzLfhkxbHf1-0" target="IbOYJ-ve2DzLfhkxbHf1-1">
          <mxGeometry relative="1" as="geometry" />
        </mxCell>
        <mxCell id="IbOYJ-ve2DzLfhkxbHf1-0" value="start" style="ellipse;whiteSpace=wrap;html=1;" vertex="1" parent="WIyWlLk6GJQsqaUBKTNV-1">
          <mxGeometry x="354" y="30" width="120" height="80" as="geometry" />
        </mxCell>
        <mxCell id="IbOYJ-ve2DzLfhkxbHf1-3" style="edgeStyle=orthogonalEdgeStyle;rounded=0;orthogonalLoop=1;jettySize=auto;html=1;" edge="1" parent="WIyWlLk6GJQsqaUBKTNV-1" source="IbOYJ-ve2DzLfhkxbHf1-1">
          <mxGeometry relative="1" as="geometry">
            <mxPoint x="414" y="240" as="targetPoint" />
          </mxGeometry>
        </mxCell>
        <mxCell id="IbOYJ-ve2DzLfhkxbHf1-1" value="podaj x i n&lt;br&gt;wynik = 1" style="rounded=0;whiteSpace=wrap;html=1;" vertex="1" parent="WIyWlLk6GJQsqaUBKTNV-1">
          <mxGeometry x="354" y="140" width="120" height="60" as="geometry" />
        </mxCell>
        <mxCell id="IbOYJ-ve2DzLfhkxbHf1-4" value="stop" style="ellipse;whiteSpace=wrap;html=1;" vertex="1" parent="WIyWlLk6GJQsqaUBKTNV-1">
          <mxGeometry x="582" y="370" width="116" height="75" as="geometry" />
        </mxCell>
        <mxCell id="IbOYJ-ve2DzLfhkxbHf1-9" style="edgeStyle=orthogonalEdgeStyle;rounded=0;orthogonalLoop=1;jettySize=auto;html=1;" edge="1" parent="WIyWlLk6GJQsqaUBKTNV-1" source="IbOYJ-ve2DzLfhkxbHf1-6" target="IbOYJ-ve2DzLfhkxbHf1-7">
          <mxGeometry relative="1" as="geometry" />
        </mxCell>
        <mxCell id="IbOYJ-ve2DzLfhkxbHf1-12" value="nie" style="edgeLabel;html=1;align=center;verticalAlign=middle;resizable=0;points=[];" vertex="1" connectable="0" parent="IbOYJ-ve2DzLfhkxbHf1-9">
          <mxGeometry x="-0.2063" y="-5" relative="1" as="geometry">
            <mxPoint y="-25" as="offset" />
          </mxGeometry>
        </mxCell>
        <mxCell id="IbOYJ-ve2DzLfhkxbHf1-10" style="edgeStyle=orthogonalEdgeStyle;rounded=0;orthogonalLoop=1;jettySize=auto;html=1;entryX=1;entryY=0.5;entryDx=0;entryDy=0;" edge="1" parent="WIyWlLk6GJQsqaUBKTNV-1" source="IbOYJ-ve2DzLfhkxbHf1-6" target="IbOYJ-ve2DzLfhkxbHf1-8">
          <mxGeometry relative="1" as="geometry" />
        </mxCell>
        <mxCell id="IbOYJ-ve2DzLfhkxbHf1-6" value="n &amp;gt; 0" style="rhombus;whiteSpace=wrap;html=1;" vertex="1" parent="WIyWlLk6GJQsqaUBKTNV-1">
          <mxGeometry x="374" y="240" width="80" height="80" as="geometry" />
        </mxCell>
        <mxCell id="IbOYJ-ve2DzLfhkxbHf1-11" value="" style="edgeStyle=orthogonalEdgeStyle;rounded=0;orthogonalLoop=1;jettySize=auto;html=1;" edge="1" parent="WIyWlLk6GJQsqaUBKTNV-1" source="IbOYJ-ve2DzLfhkxbHf1-7" target="IbOYJ-ve2DzLfhkxbHf1-4">
          <mxGeometry relative="1" as="geometry" />
        </mxCell>
        <mxCell id="IbOYJ-ve2DzLfhkxbHf1-7" value="wynik" style="rounded=0;whiteSpace=wrap;html=1;" vertex="1" parent="WIyWlLk6GJQsqaUBKTNV-1">
          <mxGeometry x="580" y="250" width="120" height="60" as="geometry" />
        </mxCell>
        <mxCell id="IbOYJ-ve2DzLfhkxbHf1-14" style="edgeStyle=orthogonalEdgeStyle;rounded=0;orthogonalLoop=1;jettySize=auto;html=1;" edge="1" parent="WIyWlLk6GJQsqaUBKTNV-1" source="IbOYJ-ve2DzLfhkxbHf1-8">
          <mxGeometry relative="1" as="geometry">
            <mxPoint x="410" y="220" as="targetPoint" />
            <Array as="points">
              <mxPoint x="180" y="220" />
            </Array>
          </mxGeometry>
        </mxCell>
        <mxCell id="IbOYJ-ve2DzLfhkxbHf1-8" value="wynik = wynik * x&lt;br&gt;n = n-1" style="rounded=0;whiteSpace=wrap;html=1;" vertex="1" parent="WIyWlLk6GJQsqaUBKTNV-1">
          <mxGeometry x="120" y="250" width="120" height="60" as="geometry" />
        </mxCell>
        <mxCell id="IbOYJ-ve2DzLfhkxbHf1-13" value="tak" style="text;html=1;align=center;verticalAlign=middle;resizable=0;points=[];autosize=1;strokeColor=none;fillColor=none;" vertex="1" parent="WIyWlLk6GJQsqaUBKTNV-1">
          <mxGeometry x="300" y="250" width="40" height="30" as="geometry" />
        </mxCell>
      </root>
    </mxGraphModel>
  </diagram>
</mxfile>
